<?xml version="1.0" standalone="no"?>
<!DOCTYPE svg PUBLIC "-//W3C//DTD SVG 20010904//EN"
 "http://www.w3.org/TR/2001/REC-SVG-20010904/DTD/svg10.dtd">
<svg version="1.0" xmlns="http://www.w3.org/2000/svg"
 width="500.000000pt" height="500.000000pt" viewBox="0 0 500.000000 500.000000"
 preserveAspectRatio="xMidYMid meet">

<g transform="translate(0.000000,500.000000) scale(0.100000,-0.100000)"
fill="#000000" stroke="none">
<path d="M449 4338 c-9 -55 -14 -167 -14 -332 l0 -248 70 -64 c39 -35 103 -90
144 -121 162 -127 155 -127 -43 -1 -76 49 -141 87 -143 84 -7 -6 37 -185 64
-261 53 -149 169 -379 265 -527 56 -86 68 -95 331 -233 70 -37 126 -69 125
-71 -2 -2 -61 15 -132 37 -70 22 -130 38 -133 36 -7 -8 111 -103 202 -163 94
-63 153 -80 310 -89 197 -11 351 -59 472 -145 70 -49 232 -207 361 -350 82
-91 104 -109 164 -137 39 -18 76 -33 81 -33 6 0 -82 93 -195 207 -234 235
-235 237 -309 477 -22 72 -42 132 -44 135 -3 2 -5 -18 -5 -45 0 -51 30 -176
54 -223 40 -78 26 -72 -90 37 -66 61 -144 130 -174 154 -223 173 -536 488
-729 733 -249 315 -473 742 -575 1094 -20 69 -38 126 -40 128 -2 2 -10 -34
-17 -79z"/>
<path d="M540 4334 c0 -6 13 -48 29 -95 140 -413 431 -899 766 -1279 50 -57
332 -338 366 -365 14 -11 47 -38 75 -60 92 -75 88 -75 59 -9 -61 139 -191 316
-371 506 -132 140 -127 117 -68 275 44 119 82 191 186 350 44 67 78 127 76
133 -2 6 -26 -17 -54 -52 -127 -156 -198 -283 -254 -453 l-33 -99 -26 31
c-240 283 -334 404 -456 588 -88 132 -198 328 -250 445 -40 90 -45 99 -45 84z"/>
<path d="M2580 4276 c0 -18 22 -26 70 -26 53 0 169 -24 267 -57 46 -14 86 -24
89 -20 24 24 -80 65 -244 97 -123 24 -182 26 -182 6z"/>
<path d="M3405 4273 c-51 -153 -72 -207 -80 -210 -6 -2 -23 35 -39 82 -26 81
-47 109 -66 89 -4 -5 -2 -38 6 -74 15 -74 18 -110 6 -110 -4 0 -34 24 -66 54
-53 50 -86 62 -86 33 0 -6 27 -39 61 -73 33 -35 58 -68 55 -73 -4 -5 -32 -3
-69 6 -157 39 -183 11 -34 -36 59 -19 107 -40 107 -46 0 -7 -37 -22 -82 -34
-95 -26 -141 -48 -133 -61 10 -15 43 -12 137 14 48 13 89 21 93 18 3 -3 -38
-50 -92 -104 -72 -74 -94 -101 -85 -110 17 -17 51 4 138 89 41 40 79 73 85 73
13 0 11 -25 -11 -129 -21 -94 -20 -111 5 -111 16 0 20 14 45 134 8 44 20 81
25 83 6 2 33 -43 60 -99 28 -57 56 -104 62 -106 25 -7 25 29 -1 93 -14 36 -26
70 -26 75 0 20 22 9 59 -32 26 -28 44 -39 55 -35 9 4 16 10 16 14 0 4 -29 42
-65 83 -61 71 -74 90 -58 90 3 0 55 -16 114 -35 125 -40 129 -41 129 -17 0 13
-25 26 -102 52 -57 19 -103 40 -103 45 0 10 21 17 138 50 36 10 57 21 57 30 0
20 -28 19 -132 -7 -49 -11 -91 -18 -95 -14 -4 3 23 37 60 74 37 37 67 73 67
79 0 29 -24 19 -86 -37 -38 -33 -72 -56 -77 -51 -4 4 6 62 22 129 17 66 31
123 31 126 0 15 -39 4 -45 -11z"/>
<path d="M2408 4273 c-22 -6 -24 -33 -2 -33 32 0 104 23 98 31 -5 9 -65 10
-96 2z"/>
<path d="M2149 4183 c-87 -45 -120 -73 -86 -73 15 0 247 109 247 116 0 2 -16
4 -35 4 -21 0 -69 -18 -126 -47z"/>
<path d="M2714 4121 c-12 -12 0 -19 39 -20 23 -1 54 -2 70 -3 30 -1 45 8 33
19 -8 8 -134 11 -142 4z"/>
<path d="M2625 4110 c-3 -5 1 -10 9 -10 9 0 16 5 16 10 0 6 -4 10 -9 10 -6 0
-13 -4 -16 -10z"/>
<path d="M2912 4098 c3 -7 24 -14 49 -16 41 -2 43 -1 25 13 -24 19 -79 20 -74
3z"/>
<path d="M2505 4090 c-3 -5 -4 -14 0 -19 7 -12 65 7 65 20 0 12 -57 11 -65 -1z"/>
<path d="M1948 4064 c-29 -15 -35 -28 -18 -39 5 -3 24 8 42 24 36 33 23 41
-24 15z"/>
<path d="M2425 4059 c-10 -15 3 -25 16 -12 7 7 7 13 1 17 -6 3 -14 1 -17 -5z"/>
<path d="M2355 4029 c-4 -6 -5 -13 -2 -16 7 -7 27 6 27 18 0 12 -17 12 -25 -2z"/>
<path d="M2810 4030 c-100 -17 -306 -99 -317 -125 -3 -9 -4 -18 -1 -20 2 -2
53 16 114 41 120 50 207 74 271 74 50 0 65 16 28 30 -29 11 -30 11 -95 0z"/>
<path d="M1810 3956 c-61 -45 -94 -82 -81 -90 6 -4 19 -3 29 3 24 13 102 98
102 111 0 14 1 14 -50 -24z"/>
<path d="M2900 3952 c0 -14 11 -21 26 -15 21 8 17 23 -6 23 -11 0 -20 -4 -20
-8z"/>
<path d="M2778 3929 c-25 -14 -22 -29 6 -29 25 0 51 22 39 33 -9 10 -25 8 -45
-4z"/>
<path d="M2148 3905 c-49 -33 -73 -75 -44 -75 12 0 96 82 96 95 0 11 -16 4
-52 -20z"/>
<path d="M2688 3889 c-10 -6 -18 -14 -18 -19 0 -14 37 -12 46 1 10 17 -9 29
-28 18z"/>
<path d="M2379 3831 c-60 -38 -179 -173 -179 -202 0 -23 31 -4 71 44 24 28 70
80 103 115 32 34 57 64 54 67 -2 3 -24 -8 -49 -24z"/>
<path d="M2590 3825 c-7 -9 -10 -18 -7 -21 7 -8 47 14 47 26 0 15 -26 12 -40
-5z"/>
<path d="M2500 3750 c-17 -17 -20 -25 -11 -28 17 -6 45 22 39 39 -3 9 -11 6
-28 -11z"/>
<path d="M2864 3746 c-8 -22 3 -33 18 -18 9 9 9 15 0 24 -9 9 -13 7 -18 -6z"/>
<path d="M2950 3670 c0 -5 5 -10 10 -10 6 0 10 5 10 10 0 6 -4 10 -10 10 -5 0
-10 -4 -10 -10z"/>
<path d="M2407 3652 c-18 -20 -22 -42 -9 -42 12 0 42 34 42 48 0 17 -15 15
-33 -6z"/>
<path d="M2656 3593 c5 -41 2 -54 -20 -86 -14 -21 -26 -40 -26 -42 0 -2 19 -5
42 -7 39 -3 45 -7 64 -43 31 -61 50 -53 46 20 -3 51 0 63 17 79 29 26 26 36
-9 36 -32 0 -74 35 -85 71 -4 11 -13 19 -21 19 -12 0 -13 -10 -8 -47z"/>
<path d="M1900 3606 c-25 -28 -22 -68 4 -47 17 14 39 71 27 71 -4 0 -18 -11
-31 -24z"/>
<path d="M2327 3542 c-9 -10 -17 -29 -17 -42 0 -19 2 -21 16 -10 8 8 20 22 25
33 15 28 -3 42 -24 19z"/>
<path d="M2134 3511 c-26 -41 -94 -221 -94 -253 0 -27 19 -31 29 -6 41 105
102 290 98 294 -3 3 -18 -13 -33 -35z"/>
<path d="M3711 3454 c-14 -31 -3 -44 36 -44 16 0 25 8 29 25 8 30 7 31 -27 40
-21 5 -27 2 -38 -21z"/>
<path d="M3140 3429 c-14 -24 -11 -28 19 -31 30 -4 53 28 31 42 -23 15 -38 12
-50 -11z"/>
<path d="M2257 3414 c-4 -4 -7 -21 -7 -38 0 -26 2 -28 14 -16 18 19 24 52 10
57 -5 2 -13 0 -17 -3z"/>
<path d="M2900 3396 c0 -9 7 -16 16 -16 9 0 14 5 12 12 -6 18 -28 21 -28 4z"/>
<path d="M3022 3384 c4 -21 22 -23 26 -1 2 10 -3 17 -13 17 -10 0 -15 -6 -13
-16z"/>
<path d="M3520 3337 c0 -21 -8 -41 -20 -52 -27 -25 -25 -32 13 -49 17 -7 43
-25 56 -39 30 -33 41 -27 41 24 0 22 4 48 9 58 8 14 1 25 -34 54 -24 21 -49
37 -54 37 -6 0 -11 -15 -11 -33z"/>
<path d="M2598 3325 c-13 -29 -12 -30 24 -39 23 -5 28 -3 34 18 3 14 3 30 -1
35 -12 20 -45 12 -57 -14z"/>
<path d="M2217 3293 c-4 -3 -7 -20 -7 -36 0 -25 2 -28 15 -17 8 7 15 23 15 36
0 23 -10 31 -23 17z"/>
<path d="M1748 3245 c-22 -41 -40 -113 -33 -126 13 -20 32 11 45 70 15 72 9
98 -12 56z"/>
<path d="M3057 3219 c-10 -39 46 -57 58 -18 8 25 7 26 -26 34 -22 5 -27 3 -32
-16z"/>
<path d="M3310 3210 c-7 -17 -11 -32 -9 -33 11 -8 62 -27 64 -25 2 2 6 17 9
34 6 26 3 32 -19 42 -34 15 -31 17 -45 -18z"/>
<path d="M2485 3170 c-4 -6 -3 -16 3 -22 6 -6 12 -6 17 2 4 6 3 16 -3 22 -6 6
-12 6 -17 -2z"/>
<path d="M2023 3140 c-31 -90 -47 -336 -20 -328 13 5 39 239 35 318 l-3 45
-12 -35z"/>
<path d="M3517 3154 c-8 -8 1 -24 14 -24 5 0 9 7 9 15 0 15 -12 20 -23 9z"/>
<path d="M2180 3135 c-13 -16 -7 -45 10 -45 5 0 10 14 10 30 0 34 -3 36 -20
15z"/>
<path d="M3677 3123 c-12 -11 -8 -23 8 -23 8 0 15 7 15 15 0 16 -12 20 -23 8z"/>
<path d="M3495 2987 c8 -73 -4 -124 -35 -152 -32 -29 -25 -45 21 -45 33 0 47
-6 73 -33 17 -18 39 -48 49 -66 25 -48 40 -28 41 57 1 59 5 75 28 108 33 45
27 55 -40 69 -42 9 -51 16 -84 65 -51 77 -61 77 -53 -3z"/>
<path d="M3336 3018 c-23 -32 -20 -44 13 -58 35 -14 47 -9 53 25 4 21 0 29
-23 40 -26 14 -29 13 -43 -7z"/>
<path d="M2177 2993 c-10 -9 -9 -41 2 -47 11 -7 21 28 12 43 -4 6 -10 8 -14 4z"/>
<path d="M2572 2960 c-17 -28 -15 -35 13 -48 34 -16 34 -16 46 15 10 28 6 37
-26 47 -14 4 -24 0 -33 -14z"/>
<path d="M3077 2903 c-12 -11 -8 -23 8 -23 8 0 15 7 15 15 0 16 -12 20 -23 8z"/>
<path d="M2180 2848 c0 -13 4 -29 9 -37 13 -20 24 4 17 35 -8 30 -26 32 -26 2z"/>
<path d="M2840 2860 c0 -5 7 -10 15 -10 8 0 15 5 15 10 0 6 -7 10 -15 10 -8 0
-15 -4 -15 -10z"/>
<path d="M3815 2827 c-20 -29 -19 -44 5 -52 11 -3 20 -11 20 -16 0 -14 30 -11
34 4 18 56 16 65 -14 75 -26 9 -32 8 -45 -11z"/>
<path d="M3217 2823 c-12 -11 -8 -23 8 -23 8 0 15 7 15 15 0 16 -12 20 -23 8z"/>
<path d="M2994 2793 c-5 -19 -2 -30 11 -40 28 -20 42 -16 48 12 3 18 -2 30
-17 40 -29 21 -35 19 -42 -12z"/>
<path d="M2460 2780 c0 -5 7 -10 16 -10 8 0 12 5 9 10 -3 6 -10 10 -16 10 -5
0 -9 -4 -9 -10z"/>
<path d="M2826 2762 c-3 -6 -1 -14 5 -17 15 -10 25 3 12 16 -7 7 -13 7 -17 1z"/>
<path d="M2575 2703 c7 -57 6 -61 -24 -95 -39 -45 -39 -58 0 -58 42 0 65 -15
94 -60 37 -59 54 -53 54 19 -1 40 6 71 21 100 11 23 18 46 15 51 -3 6 -23 10
-44 10 -39 0 -63 17 -85 62 -6 12 -17 23 -24 26 -10 3 -12 -9 -7 -55z"/>
<path d="M1995 2718 c-10 -26 2 -55 17 -40 8 8 8 18 1 34 -10 21 -12 21 -18 6z"/>
<path d="M2206 2721 c-4 -6 -1 -21 6 -33 l13 -23 3 24 c4 26 -12 49 -22 32z"/>
<path d="M3122 2645 c-10 -21 -8 -27 11 -40 31 -22 44 -19 50 13 4 18 1 31
-11 40 -24 18 -38 15 -50 -13z"/>
<path d="M2836 2604 c-12 -31 -6 -51 21 -63 21 -10 28 -9 34 1 17 26 9 55 -16
66 -33 15 -32 15 -39 -4z"/>
<path d="M2250 2593 c0 -5 4 -15 10 -23 11 -18 25 -7 17 15 -6 15 -27 21 -27
8z"/>
<path d="M3290 2546 c0 -9 7 -16 16 -16 17 0 14 22 -4 28 -7 2 -12 -3 -12 -12z"/>
<path d="M3476 2544 c-11 -29 -6 -42 20 -47 33 -6 52 30 26 51 -22 16 -39 15
-46 -4z"/>
<path d="M3073 2529 c-6 -6 -9 -26 -6 -45 9 -56 -6 -103 -48 -149 -21 -23 -39
-47 -39 -54 0 -7 19 -11 48 -11 56 0 109 -31 141 -84 23 -37 49 -53 56 -33 2
6 5 49 7 94 3 70 7 85 27 107 30 32 22 52 -25 65 -24 7 -59 31 -94 66 -41 41
-59 52 -67 44z"/>
<path d="M2310 2471 c0 -5 8 -17 17 -27 20 -20 32 -1 13 21 -14 17 -30 20 -30
6z"/>
<path d="M2767 2454 c-8 -8 1 -24 14 -24 5 0 9 7 9 15 0 15 -12 20 -23 9z"/>
<path d="M3662 2416 c-13 -29 -7 -36 29 -36 19 0 28 6 32 22 11 41 -43 53 -61
14z"/>
<path d="M2510 2364 c-14 -35 -13 -37 16 -51 34 -16 44 -9 44 26 0 20 -7 31
-25 39 -23 11 -27 9 -35 -14z"/>
<path d="M2390 2362 c0 -5 7 -16 16 -23 14 -12 16 -11 13 5 -4 20 -29 35 -29
18z"/>
<path d="M2725 2268 c-6 -16 -1 -26 16 -39 31 -24 43 -19 47 16 6 44 -50 65
-63 23z"/>
<path d="M2480 2265 c0 -9 9 -15 21 -15 18 0 19 2 9 15 -7 8 -16 15 -21 15 -5
0 -9 -7 -9 -15z"/>
<path d="M2582 2199 c2 -7 10 -15 17 -17 8 -3 12 1 9 9 -2 7 -10 15 -17 17 -8
3 -12 -1 -9 -9z"/>
<path d="M2986 2152 c-3 -6 -1 -14 5 -17 15 -10 25 3 12 16 -7 7 -13 7 -17 1z"/>
<path d="M1044 2078 c-21 -35 -168 -274 -326 -532 -158 -258 -288 -471 -288
-474 0 -3 62 -2 138 1 164 7 294 36 697 155 396 117 482 136 595 135 159 -1
307 -50 431 -142 29 -22 55 -39 57 -36 7 7 -48 95 -87 138 -49 55 -141 113
-220 138 -53 17 -90 21 -187 21 -179 -1 -336 -36 -794 -177 -211 -65 -410
-111 -410 -95 0 5 99 215 221 466 121 251 218 458 216 461 -3 2 -22 -24 -43
-59z"/>
<path d="M2700 2130 c0 -5 9 -10 21 -10 11 0 17 5 14 10 -3 6 -13 10 -21 10
-8 0 -14 -4 -14 -10z"/>
<path d="M3941 2135 c-1 -5 98 -214 219 -464 121 -249 220 -457 220 -462 0
-21 -234 38 -527 132 -281 90 -555 149 -688 149 -189 -1 -368 -98 -460 -250
-19 -31 -35 -60 -35 -63 0 -4 33 18 74 47 138 99 332 156 476 141 88 -10 292
-61 555 -140 403 -121 585 -159 742 -153 l83 3 -319 520 c-361 587 -340 553
-340 540z"/>
<path d="M2810 2081 c0 -10 30 -24 37 -17 3 3 2 9 -2 15 -8 13 -35 15 -35 2z"/>
<path d="M2946 2062 c-3 -6 -1 -14 5 -17 15 -10 25 3 12 16 -7 7 -13 7 -17 1z"/>
<path d="M3040 2040 c0 -5 9 -10 20 -10 11 0 20 5 20 10 0 6 -9 10 -20 10 -11
0 -20 -4 -20 -10z"/>
<path d="M3255 2041 c-9 -16 13 -23 35 -11 11 6 20 13 20 15 0 9 -49 5 -55 -4z"/>
<path d="M3145 2030 c3 -5 13 -10 21 -10 8 0 14 5 14 10 0 6 -9 10 -21 10 -11
0 -17 -4 -14 -10z"/>
<path d="M2922 1925 c-17 -36 -16 -38 18 -53 35 -16 46 -11 52 23 5 26 -4 39
-38 49 -16 5 -23 0 -32 -19z"/>
<path d="M1810 1884 c-19 -2 -78 -9 -130 -15 -151 -17 -252 -43 -449 -114
-101 -36 -224 -76 -274 -88 l-89 -22 -34 -67 c-19 -38 -32 -68 -29 -68 3 0 46
20 95 45 415 208 781 298 1150 282 118 -5 277 -26 333 -43 16 -5 17 -3 5 16
-14 23 -75 43 -178 60 -71 11 -344 21 -400 14z"/>
<path d="M1700 1235 c-35 -8 -121 -35 -190 -60 -69 -25 -201 -68 -295 -96 -93
-27 -148 -47 -121 -44 74 10 305 68 451 115 170 54 267 67 383 52 100 -13 208
-48 290 -92 63 -34 85 -38 80 -13 -4 24 -167 105 -254 128 -93 24 -261 29
-344 10z"/>
<path d="M3025 1234 c-120 -27 -295 -109 -295 -139 0 -22 20 -18 82 15 128 69
296 107 428 96 78 -6 117 -16 325 -80 125 -39 369 -97 401 -95 11 0 -37 16
-106 35 -69 19 -190 57 -270 85 -80 28 -174 60 -210 71 -89 27 -261 33 -355
12z"/>
<path d="M1718 1099 c-100 -15 -133 -29 -48 -21 41 4 152 7 245 7 162 0 167 0
105 12 -73 14 -217 15 -302 2z"/>
<path d="M3001 1097 c-49 -11 -40 -12 115 -12 93 0 203 -3 244 -7 l75 -7 -55
15 c-74 20 -309 27 -379 11z"/>
<path d="M1733 990 c-132 -14 -405 -66 -573 -111 -85 -23 -166 -44 -180 -46
-17 -3 -77 20 -179 67 -84 39 -155 69 -157 67 -2 -1 62 -62 142 -135 99 -89
153 -132 169 -132 13 0 79 15 146 34 339 93 713 152 917 144 l107 -3 47 -47
c172 -173 516 -172 687 2 l44 45 161 -1 c223 0 543 -52 856 -138 69 -19 135
-36 148 -37 17 -3 57 27 172 131 82 74 147 136 145 138 -2 2 -73 -29 -159 -68
-103 -48 -163 -71 -178 -67 -13 3 -102 25 -198 50 -335 86 -589 121 -845 115
l-150 -3 -48 -47 c-59 -58 -153 -106 -238 -120 -123 -21 -283 38 -365 135
l-27 32 -181 1 c-100 1 -218 -2 -263 -6z"/>
</g>
</svg>
